<svg width="44" height="43" viewBox="0 0 44 43" fill="none" xmlns="http://www.w3.org/2000/svg">
<path d="M43.9912 23.1398C43.9386 21.9489 42.7464 20.9979 40.4407 20.3125C38.6523 19.7899 36.3818 19.4729 33.9271 19.4215V10.2801C33.9183 10.1258 33.8745 9.9802 33.7956 9.85169C33.5501 8.81503 32.3666 7.97542 30.2714 7.35857C28.2989 6.77598 25.7215 6.45898 23.0126 6.45898C20.3124 6.45898 17.7613 6.77598 15.8239 7.35857C14.2371 7.83834 12.3347 8.72936 12.3347 10.2629C12.3347 10.3572 12.3435 10.4514 12.361 10.5457L12.4575 14.4524C6.75912 13.39 1.2624 17.0483 0.1841 22.6086C0.0613668 23.2426 0 23.8766 0 24.5192C0 30.1737 4.70771 34.7744 10.4937 34.7744C12.9046 34.7744 15.2365 33.969 17.1038 32.4783C18.7432 32.8553 20.6718 33.0609 22.7145 33.078C23.1616 35.4512 28.4216 36.5393 33.3222 36.5393C36.0223 36.5393 38.5734 36.2137 40.5109 35.6226C42.0976 35.1428 44 34.2432 44 32.7096V23.3026C44 23.2512 44 23.1912 43.9912 23.1398ZM32.0948 15.0179C32.0948 15.1292 31.674 15.7204 29.7717 16.2858C27.992 16.8085 25.5286 17.1169 23.0213 17.1169C20.8559 17.1169 18.7344 16.8941 17.0512 16.4743C17.0249 16.4658 17.0074 16.4658 16.9811 16.4572C16.1482 15.8146 15.2277 15.3006 14.2371 14.9408L14.1757 12.5247C14.7806 12.8246 15.4118 13.0645 16.0693 13.2358C17.9717 13.7756 20.4351 14.0669 23.0213 14.0669C25.7215 14.0669 28.3076 13.7499 30.2801 13.1673C30.9376 12.9788 31.5776 12.7304 32.1825 12.4219V14.6666C32.0861 14.7865 32.0948 14.8979 32.0948 15.0179ZM16.3499 9.01208C18.1207 8.4809 20.4877 8.18104 23.0126 8.18104C25.5198 8.18104 27.9833 8.4809 29.7629 9.01208C31.6653 9.57753 32.0861 10.1601 32.0861 10.2715C32.0861 10.3914 31.6565 10.9826 29.7541 11.5395C27.9745 12.0621 25.5198 12.362 23.0126 12.362C20.5929 12.362 18.2961 12.0878 16.5515 11.5909C14.6667 11.0597 14.1407 10.4771 14.0968 10.2886C14.0968 10.2715 14.0881 10.2715 14.0881 10.2715C14.0968 10.1087 14.5001 9.5604 16.3499 9.01208ZM16.3762 30.8419C12.8081 34.0119 7.27635 33.7634 4.03268 30.2765C0.789002 26.7895 1.04324 21.3835 4.61128 18.2135C6.21558 16.7828 8.31959 15.9945 10.4937 15.9945C11.3704 15.9945 12.2383 16.1231 13.0799 16.3715C16.1219 17.2968 18.41 19.7642 19.0588 22.8057C19.1727 23.3711 19.2341 23.9537 19.2341 24.5277C19.2429 26.9352 18.1996 29.2227 16.3762 30.8419ZM18.6029 31.0304C19.313 30.1822 19.8828 29.2312 20.2861 28.2117C21.0313 28.2717 21.8027 28.3145 22.6093 28.3231V28.4773L22.6619 31.3817C21.303 31.3645 19.9442 31.2446 18.6029 31.0304ZM20.9436 23.5082C21.4521 23.5425 21.9869 23.5596 22.5304 23.5682L22.583 26.601C21.9693 26.5925 21.3644 26.5668 20.7858 26.5239C20.9173 25.8642 20.9874 25.1874 20.9874 24.5192C20.9874 24.185 20.9699 23.8509 20.9436 23.5082ZM23.1002 21.8632C23.0739 21.8632 23.0389 21.8632 23.0126 21.8632C22.171 21.8632 21.3556 21.829 20.6017 21.7776C20.2686 20.6295 19.7426 19.55 19.0325 18.5905C20.3475 18.7533 21.6712 18.8389 23.0038 18.8389C25.7127 18.8389 28.2989 18.5219 30.2714 17.9394C30.9289 17.7509 31.5601 17.5024 32.165 17.2026V19.4472C28.4041 19.55 24.538 20.3211 23.1002 21.8632ZM24.2574 23.2255C24.2574 23.2169 24.2574 23.2083 24.2662 23.1912C24.3451 22.9599 24.9675 22.3944 26.7822 21.8975C28.483 21.4263 30.7009 21.1693 33.0329 21.1693H33.1819C35.6892 21.1693 38.1439 21.452 39.9323 21.9832C41.7996 22.5315 42.2379 23.097 42.2467 23.2255V23.234C42.2379 23.3626 41.7996 23.9537 39.8534 24.5192C38.0562 25.0418 35.6892 25.3245 33.1907 25.3245C30.7711 25.3245 28.4742 25.0503 26.7296 24.562C24.8448 24.0308 24.3276 23.4397 24.275 23.2597C24.2574 23.2255 24.2574 23.2255 24.2574 23.2255ZM40.0024 33.9947C38.2315 34.5345 35.8558 34.8344 33.3309 34.8344C30.7974 34.8344 28.4304 34.5431 26.677 34.0205C24.8273 33.4636 24.4415 32.8895 24.4415 32.761C24.4415 32.7525 24.4415 32.7525 24.4415 32.7439L24.3977 30.2593C25.099 30.5935 25.8267 30.8505 26.5806 31.039C28.4216 31.5102 30.7623 31.7758 33.1644 31.7758C35.8733 31.7758 38.4419 31.4588 40.4057 30.8762C41.0456 30.6877 41.6593 30.4393 42.2467 30.148V32.7182H42.2554C42.2554 32.8381 41.8522 33.4293 40.0024 33.9947ZM42.2642 27.6891H42.2554C42.2554 27.7748 42.2028 27.8776 42.2028 27.9718C42.2028 28.0918 41.7908 28.6744 39.8972 29.2398C38.1 29.771 35.7067 30.0623 33.1731 30.0623C28.3164 30.0623 25.0464 28.9914 24.3626 28.1603L24.3539 27.4407L24.3188 25.4701C24.9325 25.77 25.5724 26.0099 26.2299 26.1898C28.1323 26.7296 30.5957 27.0208 33.1819 27.0208C35.847 27.0208 38.3893 26.7124 40.3443 26.147C41.0106 25.9671 41.6505 25.7186 42.2642 25.4102V27.6891Z" fill="white"/>
<path d="M13.6856 25.7372C13.2823 24.3407 11.9761 23.3812 10.4945 23.3812C9.63536 23.3812 8.93402 22.7043 8.93402 21.8647C8.94279 21.0166 9.63536 20.3397 10.4945 20.3397C11.3536 20.3397 12.055 21.0251 12.055 21.8647C12.055 22.3359 12.4495 22.7215 12.9316 22.7215C13.4138 22.7215 13.8083 22.3359 13.8083 21.8647C13.8083 20.4168 12.8264 19.1403 11.3975 18.7462V18.3607C11.3975 17.8894 11.003 17.5039 10.5208 17.5039C10.0386 17.5039 9.64412 17.8894 9.64412 18.3607V18.7291C7.88202 19.1917 6.83002 20.9652 7.30342 22.6872C7.68915 24.1008 8.99539 25.0861 10.4945 25.0861C11.3536 25.0861 12.055 25.7629 12.055 26.6025C12.055 27.4421 11.3624 28.1275 10.5033 28.1275C9.64413 28.1275 8.94279 27.4507 8.94279 26.6111C8.94279 26.1399 8.54829 25.7544 8.06612 25.7544C7.58395 25.7544 7.18945 26.1399 7.18945 26.6111C7.19822 28.0761 8.19762 29.3527 9.64412 29.7382V30.4836C9.64412 30.9548 10.0386 31.3403 10.5208 31.3403C11.003 31.3403 11.3975 30.9548 11.3975 30.4836V29.7297C13.1596 29.2413 14.1853 27.4593 13.6856 25.7372Z" fill="white"/>
</svg>
