<svg width="33" height="26" viewBox="0 0 33 26" fill="none" xmlns="http://www.w3.org/2000/svg">
<path d="M26.3337 18.8838H12.2491C11.9473 18.8838 11.7461 19.0964 11.7461 19.4152C11.7461 19.7341 11.9473 19.9467 12.2491 19.9467H26.3337C26.6355 19.9467 26.8367 19.7341 26.8367 19.4152C26.8367 19.0964 26.6355 18.8838 26.3337 18.8838Z" fill="#1B1817"/>
<path d="M26.3337 13.0383H12.2491C11.9473 13.0383 11.7461 13.2508 11.7461 13.5697C11.7461 13.8885 11.9473 14.1011 12.2491 14.1011H26.3337C26.6355 14.1011 26.8367 13.8885 26.8367 13.5697C26.8367 13.2508 26.6355 13.0383 26.3337 13.0383Z" fill="#1B1817"/>
<path d="M26.3337 7.72416H12.2491C11.9473 7.72416 11.7461 7.93673 11.7461 8.25558C11.7461 8.57442 11.9473 8.78699 12.2491 8.78699H26.3337C26.6355 8.78699 26.8367 8.57442 26.8367 8.25558C26.8367 7.93673 26.6355 7.72416 26.3337 7.72416Z" fill="#1B1817"/>
<path d="M8.67997 20.9563C7.77453 20.9563 7.07031 20.2123 7.07031 19.2558C7.07031 18.2992 7.77453 17.5553 8.67997 17.5553C9.58541 17.5553 10.2896 18.2992 10.2896 19.2558C10.2896 20.2123 9.58541 20.9563 8.67997 20.9563Z" fill="#1B1817"/>
<path d="M8.67997 15.4296C7.77453 15.4296 7.07031 14.6856 7.07031 13.7291C7.07031 12.7725 7.77453 12.0285 8.67997 12.0285C9.58541 12.0285 10.2896 12.7725 10.2896 13.7291C10.2896 14.6856 9.58541 15.4296 8.67997 15.4296Z" fill="#1B1817"/>
<path d="M8.67997 9.79663C7.77453 9.79663 7.07031 9.05266 7.07031 8.09612C7.07031 7.13958 7.77453 6.3956 8.67997 6.3956C9.58541 6.3956 10.2896 7.13958 10.2896 8.09612C10.2896 9.05266 9.58541 9.79663 8.67997 9.79663Z" fill="#1B1817"/>
</svg>
