<svg width="18" height="4" viewBox="0 0 18 4" fill="none" xmlns="http://www.w3.org/2000/svg">
<path d="M1.98307 4C1.42866 4 0.959548 3.80645 0.575729 3.41935C0.19191 3.03226 0 2.55914 0 2C0 1.44086 0.19191 0.967742 0.575729 0.580645C0.959548 0.193548 1.42866 0 1.98307 0C2.51615 0 2.96394 0.193548 3.32643 0.580645C3.71025 0.967742 3.90216 1.44086 3.90216 2C3.90216 2.55914 3.71025 3.03226 3.32643 3.41935C2.96394 3.80645 2.51615 4 1.98307 4Z" fill="#090761"/>
<path d="M8.69865 4C8.14425 4 7.67513 3.80645 7.29131 3.41935C6.9075 3.03226 6.71559 2.55914 6.71559 2C6.71559 1.44086 6.9075 0.967742 7.29131 0.580645C7.67513 0.193548 8.14425 0 8.69865 0C9.23173 0 9.67952 0.193548 10.042 0.580645C10.4258 0.967742 10.6177 1.44086 10.6177 2C10.6177 2.55914 10.4258 3.03226 10.042 3.41935C9.67952 3.80645 9.23173 4 8.69865 4Z" fill="#090761"/>
<path d="M15.4142 4C14.8598 4 14.3907 3.80645 14.0069 3.41935C13.6231 3.03226 13.4312 2.55914 13.4312 2C13.4312 1.44086 13.6231 0.967742 14.0069 0.580645C14.3907 0.193548 14.8598 0 15.4142 0C15.9473 0 16.3951 0.193548 16.7576 0.580645C17.1414 0.967742 17.3333 1.44086 17.3333 2C17.3333 2.55914 17.1414 3.03226 16.7576 3.41935C16.3951 3.80645 15.9473 4 15.4142 4Z" fill="#090761"/>
</svg>
