<svg width="33" height="33" viewBox="0 0 33 33" fill="none" xmlns="http://www.w3.org/2000/svg">
<g filter="url(#filter0_i)">
<rect width="33" height="33" rx="3" fill="#090761"/>
</g>
<path d="M7.875 10.75H9.79167H25.125" stroke="white" stroke-width="2" stroke-linecap="round" stroke-linejoin="round"/>
<path d="M12.668 10.8333V8.91667C12.668 8.40834 12.8699 7.92082 13.2293 7.56138C13.5888 7.20193 14.0763 7 14.5846 7H18.418C18.9263 7 19.4138 7.20193 19.7733 7.56138C20.1327 7.92082 20.3346 8.40834 20.3346 8.91667V10.8333M23.2096 10.8333V24.25C23.2096 24.7583 23.0077 25.2458 22.6483 25.6053C22.2888 25.9647 21.8013 26.1667 21.293 26.1667H11.7096C11.2013 26.1667 10.7138 25.9647 10.3543 25.6053C9.9949 25.2458 9.79297 24.7583 9.79297 24.25V10.8333H23.2096Z" stroke="white" stroke-width="2" stroke-linecap="round" stroke-linejoin="round"/>
<path d="M14.582 15.541V21.291" stroke="white" stroke-width="2" stroke-linecap="round" stroke-linejoin="round"/>
<path d="M18.418 15.541V21.291" stroke="white" stroke-width="2" stroke-linecap="round" stroke-linejoin="round"/>
<defs>
<filter id="filter0_i" x="0" y="0" width="33" height="37" filterUnits="userSpaceOnUse" color-interpolation-filters="sRGB">
<feFlood flood-opacity="0" result="BackgroundImageFix"/>
<feBlend mode="normal" in="SourceGraphic" in2="BackgroundImageFix" result="shape"/>
<feColorMatrix in="SourceAlpha" type="matrix" values="0 0 0 0 0 0 0 0 0 0 0 0 0 0 0 0 0 0 127 0" result="hardAlpha"/>
<feOffset dy="4"/>
<feGaussianBlur stdDeviation="6.5"/>
<feComposite in2="hardAlpha" operator="arithmetic" k2="-1" k3="1"/>
<feColorMatrix type="matrix" values="0 0 0 0 0.0352941 0 0 0 0 0.027451 0 0 0 0 0.380392 0 0 0 0.5 0"/>
<feBlend mode="normal" in2="shape" result="effect1_innerShadow"/>
</filter>
</defs>
</svg>
