<svg width="44" height="31" viewBox="0 0 44 31" fill="none" xmlns="http://www.w3.org/2000/svg">
<path d="M43.9912 17.1398C43.9386 15.9489 42.7464 14.9979 40.4407 14.3125C38.6523 13.7899 36.3818 13.4729 33.9271 13.4215V4.28006C33.9183 4.12585 33.8745 3.9802 33.7956 3.85169C33.5501 2.81503 32.3666 1.97542 30.2714 1.35857C28.2989 0.77598 25.7215 0.458984 23.0126 0.458984C20.3124 0.458984 17.7613 0.77598 15.8239 1.35857C14.2371 1.83834 12.3347 2.72936 12.3347 4.26293C12.3347 4.35717 12.3435 4.45141 12.361 4.54565L12.4575 8.45241C6.75912 7.39005 1.2624 11.0483 0.1841 16.6086C0.0613668 17.2426 0 17.8766 0 18.5192C0 24.1737 4.70771 28.7744 10.4937 28.7744C12.9046 28.7744 15.2365 27.969 17.1038 26.4783C18.7432 26.8553 20.6718 27.0609 22.7145 27.078C23.1616 29.4512 28.4216 30.5393 33.3222 30.5393C36.0223 30.5393 38.5734 30.2137 40.5109 29.6226C42.0976 29.1428 44 28.2432 44 26.7096V17.3026C44 17.2512 44 17.1912 43.9912 17.1398ZM32.0948 9.01786C32.0948 9.12924 31.674 9.72039 29.7717 10.2858C27.992 10.8085 25.5286 11.1169 23.0213 11.1169C20.8559 11.1169 18.7344 10.8941 17.0512 10.4743C17.0249 10.4658 17.0074 10.4658 16.9811 10.4572C16.1482 9.81463 15.2277 9.30059 14.2371 8.94075L14.1757 6.52473C14.7806 6.82459 15.4118 7.06448 16.0693 7.23583C17.9717 7.77558 20.4351 8.06687 23.0213 8.06687C25.7215 8.06687 28.3076 7.74988 30.2801 7.16729C30.9376 6.97881 31.5776 6.73035 32.1825 6.42193V8.66659C32.0861 8.78654 32.0948 8.89792 32.0948 9.01786ZM16.3499 3.01208C18.1207 2.4809 20.4877 2.18104 23.0126 2.18104C25.5198 2.18104 27.9833 2.4809 29.7629 3.01208C31.6653 3.57753 32.0861 4.16012 32.0861 4.2715C32.0861 4.39144 31.6565 4.98259 29.7541 5.53948C27.9745 6.06209 25.5198 6.36195 23.0126 6.36195C20.5929 6.36195 18.2961 6.08779 16.5515 5.59088C14.6667 5.0597 14.1407 4.47712 14.0968 4.28863C14.0968 4.2715 14.0881 4.2715 14.0881 4.2715C14.0968 4.10872 14.5001 3.5604 16.3499 3.01208ZM16.3762 24.8419C12.8081 28.0119 7.27635 27.7634 4.03268 24.2765C0.789002 20.7895 1.04324 15.3835 4.61128 12.2135C6.21558 10.7828 8.31959 9.99455 10.4937 9.99455C11.3704 9.99455 12.2383 10.1231 13.0799 10.3715C16.1219 11.2968 18.41 13.7642 19.0588 16.8057C19.1727 17.3711 19.2341 17.9537 19.2341 18.5277C19.2429 20.9352 18.1996 23.2227 16.3762 24.8419ZM18.6029 25.0304C19.313 24.1822 19.8828 23.2312 20.2861 22.2117C21.0313 22.2717 21.8027 22.3145 22.6093 22.3231V22.4773L22.6619 25.3817C21.303 25.3645 19.9442 25.2446 18.6029 25.0304ZM20.9436 17.5082C21.4521 17.5425 21.9869 17.5596 22.5304 17.5682L22.583 20.601C21.9693 20.5925 21.3644 20.5668 20.7858 20.5239C20.9173 19.8642 20.9874 19.1874 20.9874 18.5192C20.9874 18.185 20.9699 17.8509 20.9436 17.5082ZM23.1002 15.8632C23.0739 15.8632 23.0389 15.8632 23.0126 15.8632C22.171 15.8632 21.3556 15.829 20.6017 15.7776C20.2686 14.6295 19.7426 13.55 19.0325 12.5905C20.3475 12.7533 21.6712 12.8389 23.0038 12.8389C25.7127 12.8389 28.2989 12.5219 30.2714 11.9394C30.9289 11.7509 31.5601 11.5024 32.165 11.2026V13.4472C28.4041 13.55 24.538 14.3211 23.1002 15.8632ZM24.2574 17.2255C24.2574 17.2169 24.2574 17.2083 24.2662 17.1912C24.3451 16.9599 24.9675 16.3944 26.7822 15.8975C28.483 15.4263 30.7009 15.1693 33.0329 15.1693H33.1819C35.6892 15.1693 38.1439 15.452 39.9323 15.9832C41.7996 16.5315 42.2379 17.097 42.2467 17.2255V17.234C42.2379 17.3626 41.7996 17.9537 39.8534 18.5192C38.0562 19.0418 35.6892 19.3245 33.1907 19.3245C30.7711 19.3245 28.4742 19.0503 26.7296 18.562C24.8448 18.0308 24.3276 17.4397 24.275 17.2597C24.2574 17.2255 24.2574 17.2255 24.2574 17.2255ZM40.0024 27.9947C38.2315 28.5345 35.8558 28.8344 33.3309 28.8344C30.7974 28.8344 28.4304 28.5431 26.677 28.0205C24.8273 27.4636 24.4415 26.8895 24.4415 26.761C24.4415 26.7525 24.4415 26.7525 24.4415 26.7439L24.3977 24.2593C25.099 24.5935 25.8267 24.8505 26.5806 25.039C28.4216 25.5102 30.7623 25.7758 33.1644 25.7758C35.8733 25.7758 38.4419 25.4588 40.4057 24.8762C41.0456 24.6877 41.6593 24.4393 42.2467 24.148V26.7182H42.2554C42.2554 26.8381 41.8522 27.4293 40.0024 27.9947ZM42.2642 21.6891H42.2554C42.2554 21.7748 42.2028 21.8776 42.2028 21.9718C42.2028 22.0918 41.7908 22.6744 39.8972 23.2398C38.1 23.771 35.7067 24.0623 33.1731 24.0623C28.3164 24.0623 25.0464 22.9914 24.3626 22.1603L24.3539 21.4407L24.3188 19.4701C24.9325 19.77 25.5724 20.0099 26.2299 20.1898C28.1323 20.7296 30.5957 21.0208 33.1819 21.0208C35.847 21.0208 38.3893 20.7124 40.3443 20.147C41.0106 19.9671 41.6505 19.7186 42.2642 19.4102V21.6891Z" fill="white"/>
</svg>
