<svg width="28" height="28" viewBox="0 0 28 28" fill="none" xmlns="http://www.w3.org/2000/svg">
<path d="M1.16602 4.66663V11.6666H8.16601" stroke="#090761" stroke-width="2" stroke-linecap="round" stroke-linejoin="round"/>
<path d="M26.834 23.3334V16.3334H19.834" stroke="#090761" stroke-width="2" stroke-linecap="round" stroke-linejoin="round"/>
<path d="M23.9043 10.5C23.3127 8.82796 22.307 7.33302 20.9813 6.1547C19.6556 4.97639 18.053 4.15311 16.323 3.76168C14.5931 3.37026 12.7921 3.42345 11.0883 3.91628C9.38445 4.40912 7.83322 5.32555 6.57935 6.58005L1.16602 11.6667M26.8327 16.3334L21.4193 21.42C20.1655 22.6745 18.6142 23.591 16.9104 24.0838C15.2066 24.5767 13.4056 24.6298 11.6757 24.2384C9.94573 23.847 8.34312 23.0237 7.01739 21.8454C5.69167 20.6671 4.68604 19.1721 4.09435 17.5" stroke="#090761" stroke-width="2" stroke-linecap="round" stroke-linejoin="round"/>
</svg>
