<svg width="23" height="23" viewBox="0 0 23 23" fill="none" xmlns="http://www.w3.org/2000/svg">
<g clipPath="url(#clip0)">
<path d="M4.60224 0C2.69981 0.000404285 1.15234 1.54787 1.15234 3.4503C1.15234 5.35273 2.69981 6.89984 4.60224 6.89984C6.50467 6.89984 8.05214 5.35237 8.05214 3.44994C8.05214 1.54747 6.50467 0 4.60224 0ZM4.60224 5.75024C3.33193 5.75024 2.30231 4.72061 2.30231 3.4503C2.30231 2.17999 3.33193 1.15037 4.60224 1.15037C5.87255 1.15037 6.90217 2.17999 6.90217 3.4503C6.90217 4.72061 5.8726 5.75024 4.60224 5.75024Z" fill="#949DA6"/>
<path d="M21.8489 5.75H10.3492C9.71401 5.75 9.19922 6.26479 9.19922 6.89997V7.77817L10.3492 8.35315V6.89997H21.8489V16.0993H10.3492V14.7324L9.19922 14.4453V16.0993C9.19922 16.7345 9.71401 17.2493 10.3492 17.2493H15.084L12.1562 22.1286C11.9921 22.4004 12.081 22.7542 12.3539 22.9171C12.6234 23.0823 12.9784 22.9934 13.1424 22.7193L15.524 18.7496V22.4238C15.524 22.7415 15.7813 22.9987 16.099 22.9987C16.4168 22.9987 16.674 22.7415 16.674 22.4238V18.7496L19.056 22.7189C19.1637 22.8987 19.3546 22.9984 19.5489 22.9984C19.6501 22.9984 19.7521 22.9727 19.8445 22.9164C20.1174 22.7534 20.2059 22.3996 20.0422 22.1279L17.1144 17.2486H21.8488C22.484 17.2486 22.9988 16.7338 22.9988 16.0986V6.89997C22.9988 6.26479 22.484 5.75 21.8489 5.75Z" fill="#949DA6"/>
<path d="M20.102 9.04143C20.0153 8.73592 19.6975 8.55615 19.3913 8.64738L12.2956 10.6748C12.2128 10.5947 12.12 10.5245 12.0142 10.4712L7.41437 8.17131C7.25454 8.09158 7.07859 8.0498 6.89994 8.0498H2.30007C1.74427 8.0498 1.26816 8.44731 1.16852 8.99394L0.0185555 15.3184C-0.0424017 15.6538 0.0484726 15.9991 0.266966 16.2609C0.48546 16.5227 0.808978 16.6741 1.15015 16.6741H1.88496L2.30393 21.9398C2.35146 22.5378 2.85017 22.9985 3.45008 22.9985H5.75002C6.33609 22.9985 6.82829 22.5581 6.89306 21.9758L7.89776 12.9344L11.2212 13.7651C11.3132 13.7881 11.4067 13.7992 11.4998 13.7992C11.7536 13.7992 12.0031 13.7152 12.2075 13.5558C12.4865 13.338 12.6498 13.0034 12.6498 12.6492V11.7687L19.7079 9.75207C20.0134 9.66546 20.1897 9.34653 20.102 9.04143ZM11.4998 12.6496L6.89994 11.4997L5.74997 21.849H3.45004L2.94711 15.5242H1.1501L2.30007 9.19977H4.02502V12.698C4.02502 13.0157 4.28224 13.2729 4.6 13.2729C4.91777 13.2729 5.17499 13.0157 5.17499 12.698V9.19973H6.89994L11.4998 11.4997V12.6496Z" fill="#949DA6"/>
</g>
<defs>
<clipPath id="clip0">
<rect width="23" height="23" fill="white"/>
</clipPath>
</defs>
</svg>
