<svg width="33" height="33" viewBox="0 0 33 33" fill="none" xmlns="http://www.w3.org/2000/svg">
<g filter="url(#filter0_i)">
<rect width="33" height="33" rx="3" fill="#090761"/>
</g>
<path d="M16.168 9H10.3346C9.89261 9 9.46868 9.17559 9.15612 9.48816C8.84356 9.80072 8.66797 10.2246 8.66797 10.6667V22.3333C8.66797 22.7754 8.84356 23.1993 9.15612 23.5118C9.46868 23.8244 9.89261 24 10.3346 24H22.0013C22.4433 24 22.8673 23.8244 23.1798 23.5118C23.4924 23.1993 23.668 22.7754 23.668 22.3333V16.5" stroke="white" stroke-width="2" stroke-linecap="round" stroke-linejoin="round"/>
<path d="M22.418 8.08417C22.7495 7.75265 23.1991 7.56641 23.668 7.56641C24.1368 7.56641 24.5864 7.75265 24.918 8.08417C25.2495 8.41569 25.4357 8.86533 25.4357 9.33417C25.4357 9.80301 25.2495 10.2527 24.918 10.5842L17.0013 18.5008L13.668 19.3342L14.5013 16.0008L22.418 8.08417Z" stroke="white" stroke-width="2" stroke-linecap="round" stroke-linejoin="round"/>
<defs>
<filter id="filter0_i" x="0" y="0" width="33" height="37" filterUnits="userSpaceOnUse" color-interpolation-filters="sRGB">
<feFlood flood-opacity="0" result="BackgroundImageFix"/>
<feBlend mode="normal" in="SourceGraphic" in2="BackgroundImageFix" result="shape"/>
<feColorMatrix in="SourceAlpha" type="matrix" values="0 0 0 0 0 0 0 0 0 0 0 0 0 0 0 0 0 0 127 0" result="hardAlpha"/>
<feOffset dy="4"/>
<feGaussianBlur stdDeviation="6.5"/>
<feComposite in2="hardAlpha" operator="arithmetic" k2="-1" k3="1"/>
<feColorMatrix type="matrix" values="0 0 0 0 0.0352941 0 0 0 0 0.027451 0 0 0 0 0.380392 0 0 0 0.5 0"/>
<feBlend mode="normal" in2="shape" result="effect1_innerShadow"/>
</filter>
</defs>
</svg>
