<svg width="38" height="38" viewBox="0 0 38 38" fill="none" xmlns="http://www.w3.org/2000/svg">
<rect x="0.5" y="0.5" width="37" height="37" rx="4.5" stroke="#DFE3E8"/>
<path d="M19 8V30" stroke="#04BB6E" stroke-width="2" stroke-linecap="round" stroke-linejoin="round"/>
<path d="M24 12H16.5C15.5717 12 14.6815 12.3687 14.0251 13.0251C13.3687 13.6815 13 14.5717 13 15.5C13 16.4283 13.3687 17.3185 14.0251 17.9749C14.6815 18.6313 15.5717 19 16.5 19H21.5C22.4283 19 23.3185 19.3687 23.9749 20.0251C24.6313 20.6815 25 21.5717 25 22.5C25 23.4283 24.6313 24.3185 23.9749 24.9749C23.3185 25.6313 22.4283 26 21.5 26H13" stroke="#04BB6E" stroke-width="2" stroke-linecap="round" stroke-linejoin="round"/>
</svg>
