<svg width="40" height="40" viewBox="0 0 40 40" fill="none" xmlns="http://www.w3.org/2000/svg">
<path d="M20 28H29" stroke="#00B036" stroke-width="1.5" stroke-linecap="round" stroke-linejoin="round"/>
<path d="M24.5 11.5002C24.8978 11.1024 25.4374 10.8789 26 10.8789C26.2786 10.8789 26.5544 10.9338 26.8118 11.0404C27.0692 11.147 27.303 11.3032 27.5 11.5002C27.697 11.6972 27.8532 11.9311 27.9598 12.1884C28.0665 12.4458 28.1213 12.7217 28.1213 13.0002C28.1213 13.2788 28.0665 13.5547 27.9598 13.812C27.8532 14.0694 27.697 14.3032 27.5 14.5002L15 27.0002L11 28.0002L12 24.0002L24.5 11.5002Z" stroke="#00B036" stroke-width="1.5" stroke-linecap="round" stroke-linejoin="round"/>
<circle cx="20" cy="20" r="19" stroke="#00B036" stroke-width="2"/>
</svg>
