<svg width="44" height="43" viewBox="0 0 44 43" fill="none" xmlns="http://www.w3.org/2000/svg">
<path d="M43.9912 23.1407C43.9386 21.9498 42.7464 20.9988 40.4407 20.3134C38.6523 19.7908 36.3818 19.4738 33.9271 19.4224V10.2809C33.9183 10.1267 33.8745 9.98106 33.7956 9.85255C33.5501 8.81589 32.3666 7.97628 30.2714 7.35942C28.2989 6.77683 25.7215 6.45984 23.0126 6.45984C20.3124 6.45984 17.7613 6.77683 15.8239 7.35942C14.2371 7.8392 12.3347 8.73021 12.3347 10.2638C12.3347 10.358 12.3435 10.4523 12.361 10.5465L12.4575 14.4533C6.75912 13.3909 1.2624 17.0492 0.1841 22.6095C0.0613668 23.2435 0 23.8775 0 24.52C0 30.1745 4.70771 34.7752 10.4937 34.7752C12.9046 34.7752 15.2365 33.9699 17.1038 32.4792C18.7432 32.8561 20.6718 33.0618 22.7145 33.0789C23.1616 35.4521 28.4216 36.5401 33.3222 36.5401C36.0223 36.5401 38.5734 36.2146 40.5109 35.6234C42.0976 35.1436 44 34.2441 44 32.7105V23.3034C44 23.252 44 23.1921 43.9912 23.1407ZM32.0948 15.0187C32.0948 15.1301 31.674 15.7212 29.7717 16.2867C27.992 16.8093 25.5286 17.1177 23.0213 17.1177C20.8559 17.1177 18.7344 16.895 17.0512 16.4752C17.0249 16.4666 17.0074 16.4666 16.9811 16.458C16.1482 15.8155 15.2277 15.3014 14.2371 14.9416L14.1757 12.5256C14.7806 12.8254 15.4118 13.0653 16.0693 13.2367C17.9717 13.7764 20.4351 14.0677 23.0213 14.0677C25.7215 14.0677 28.3076 13.7507 30.2801 13.1681C30.9376 12.9797 31.5776 12.7312 32.1825 12.4228V14.6674C32.0861 14.7874 32.0948 14.8988 32.0948 15.0187ZM16.3499 9.01294C18.1207 8.48176 20.4877 8.18189 23.0126 8.18189C25.5198 8.18189 27.9833 8.48176 29.7629 9.01294C31.6653 9.57839 32.0861 10.161 32.0861 10.2724C32.0861 10.3923 31.6565 10.9834 29.7541 11.5403C27.9745 12.0629 25.5198 12.3628 23.0126 12.3628C20.5929 12.3628 18.2961 12.0886 16.5515 11.5917C14.6667 11.0606 14.1407 10.478 14.0968 10.2895C14.0968 10.2724 14.0881 10.2724 14.0881 10.2724C14.0968 10.1096 14.5001 9.56125 16.3499 9.01294ZM16.3762 30.8428C12.8081 34.0127 7.27635 33.7643 4.03268 30.2773C0.789002 26.7904 1.04324 21.3843 4.61128 18.2144C6.21558 16.7836 8.31959 15.9954 10.4937 15.9954C11.3704 15.9954 12.2383 16.1239 13.0799 16.3724C16.1219 17.2977 18.41 19.7651 19.0588 22.8065C19.1727 23.372 19.2341 23.9546 19.2341 24.5286C19.2429 26.936 18.1996 29.2235 16.3762 30.8428ZM18.6029 31.0313C19.313 30.1831 19.8828 29.2321 20.2861 28.2126C21.0313 28.2725 21.8027 28.3154 22.6093 28.324V28.4782L22.6619 31.3825C21.303 31.3654 19.9442 31.2455 18.6029 31.0313ZM20.9436 23.5091C21.4521 23.5433 21.9869 23.5605 22.5304 23.569L22.583 26.6019C21.9693 26.5933 21.3644 26.5676 20.7858 26.5248C20.9173 25.8651 20.9874 25.1883 20.9874 24.52C20.9874 24.1859 20.9699 23.8517 20.9436 23.5091ZM23.1002 21.8641C23.0739 21.8641 23.0389 21.8641 23.0126 21.8641C22.171 21.8641 21.3556 21.8298 20.6017 21.7784C20.2686 20.6304 19.7426 19.5509 19.0325 18.5913C20.3475 18.7541 21.6712 18.8398 23.0038 18.8398C25.7127 18.8398 28.2989 18.5228 30.2714 17.9402C30.9289 17.7517 31.5601 17.5033 32.165 17.2034V19.4481C28.4041 19.5509 24.538 20.322 23.1002 21.8641ZM24.2574 23.2263C24.2574 23.2178 24.2574 23.2092 24.2662 23.1921C24.3451 22.9607 24.9675 22.3953 26.7822 21.8984C28.483 21.4272 30.7009 21.1701 33.0329 21.1701H33.1819C35.6892 21.1701 38.1439 21.4529 39.9323 21.984C41.7996 22.5324 42.2379 23.0978 42.2467 23.2263V23.2349C42.2379 23.3634 41.7996 23.9546 39.8534 24.52C38.0562 25.0426 35.6892 25.3253 33.1907 25.3253C30.7711 25.3253 28.4742 25.0512 26.7296 24.5628C24.8448 24.0317 24.3276 23.4405 24.275 23.2606C24.2574 23.2263 24.2574 23.2263 24.2574 23.2263ZM40.0024 33.9956C38.2315 34.5354 35.8558 34.8352 33.3309 34.8352C30.7974 34.8352 28.4304 34.5439 26.677 34.0213C24.8273 33.4644 24.4415 32.8904 24.4415 32.7619C24.4415 32.7533 24.4415 32.7533 24.4415 32.7448L24.3977 30.2602C25.099 30.5943 25.8267 30.8514 26.5806 31.0398C28.4216 31.511 30.7623 31.7766 33.1644 31.7766C35.8733 31.7766 38.4419 31.4596 40.4057 30.8771C41.0456 30.6886 41.6593 30.4401 42.2467 30.1488V32.7191H42.2554C42.2554 32.839 41.8522 33.4302 40.0024 33.9956ZM42.2642 27.69H42.2554C42.2554 27.7756 42.2028 27.8784 42.2028 27.9727C42.2028 28.0926 41.7908 28.6752 39.8972 29.2407C38.1 29.7719 35.7067 30.0631 33.1731 30.0631C28.3164 30.0631 25.0464 28.9922 24.3626 28.1612L24.3539 27.4415L24.3188 25.471C24.9325 25.7709 25.5724 26.0107 26.2299 26.1907C28.1323 26.7304 30.5957 27.0217 33.1819 27.0217C35.847 27.0217 38.3893 26.7133 40.3443 26.1478C41.0106 25.9679 41.6505 25.7195 42.2642 25.411V27.69Z" fill="#9292CE"/>
<path d="M13.6851 25.7366C13.2818 24.3401 11.9756 23.3806 10.494 23.3806C9.63487 23.3806 8.93354 22.7037 8.93354 21.8641C8.9423 21.0159 9.63487 20.3391 10.494 20.3391C11.3531 20.3391 12.0545 21.0245 12.0545 21.8641C12.0545 22.3353 12.449 22.7209 12.9311 22.7209C13.4133 22.7209 13.8078 22.3353 13.8078 21.8641C13.8078 20.4162 12.8259 19.1397 11.397 18.7456V18.36C11.397 17.8888 11.0025 17.5033 10.5203 17.5033C10.0381 17.5033 9.64364 17.8888 9.64364 18.36V18.7284C7.88153 19.1911 6.82953 20.9645 7.30293 22.6866C7.68867 24.1002 8.9949 25.0855 10.494 25.0855C11.3531 25.0855 12.0545 25.7623 12.0545 26.6019C12.0545 27.4415 11.3619 28.1269 10.5028 28.1269C9.64364 28.1269 8.9423 27.4501 8.9423 26.6105C8.9423 26.1393 8.5478 25.7537 8.06563 25.7537C7.58347 25.7537 7.18896 26.1393 7.18896 26.6105C7.19773 28.0755 8.19713 29.3521 9.64364 29.7376V30.483C9.64364 30.9542 10.0381 31.3397 10.5203 31.3397C11.0025 31.3397 11.397 30.9542 11.397 30.483V29.729C13.1591 29.2407 14.1848 27.4587 13.6851 25.7366Z" fill="#9292CE"/>
</svg>
