<svg width="76" height="23" viewBox="0 0 76 23" fill="none" xmlns="http://www.w3.org/2000/svg">
<path d="M0.22 2H5.38V23H0.22V2ZM9.31938 6.56V2H25.7894L15.8894 18.62H24.7394V23H7.87938L17.6594 6.56H9.31938ZM33.8629 12.32L32.5729 23H27.2329L30.6229 0.95L39.5929 13.73L48.5329 0.95L51.9529 23H46.5829L45.3229 12.32L39.5929 21.05L33.8629 12.32ZM69.2516 23L67.2716 18.95H60.6116L58.6616 23H52.9016L63.9716 0.679999L75.0116 23H69.2516ZM63.9716 9.74L61.6316 15.08H66.2816L63.9716 9.74Z" fill="black"/>
</svg>
