<svg width="64" height="60" viewBox="0 0 64 60" fill="none" xmlns="http://www.w3.org/2000/svg">
<path d="M41.3341 20L50.6674 10.6667M56.0007 5.33333L50.6674 10.6667L56.0007 5.33333ZM30.3741 30.96C31.751 32.3186 32.8455 33.9361 33.5947 35.7194C34.3439 37.5028 34.733 39.4167 34.7395 41.351C34.746 43.2853 34.3697 45.2018 33.6325 46.9901C32.8953 48.7785 31.8116 50.4033 30.4438 51.7711C29.076 53.1388 27.4512 54.2225 25.6629 54.9598C23.8746 55.697 21.9581 56.0732 20.0238 56.0667C18.0894 56.0603 16.1755 55.6712 14.3922 54.922C12.6088 54.1728 10.9913 53.0782 9.63273 51.7013C6.96108 48.9352 5.48276 45.2303 5.51618 41.3848C5.5496 37.5392 7.09207 33.8606 9.81139 31.1413C12.5307 28.422 16.2093 26.8795 20.0548 26.8461C23.9004 26.8127 27.6052 28.291 30.3714 30.9627L30.3741 30.96ZM30.3741 30.96L41.3341 20L30.3741 30.96ZM41.3341 20L49.3341 28L58.6674 18.6667L50.6674 10.6667L41.3341 20Z" stroke="#E244AC" stroke-width="4" stroke-linecap="round" stroke-linejoin="round"/>
</svg>
