<svg width="64" height="64" viewBox="0 0 64 64" fill="none" xmlns="http://www.w3.org/2000/svg">
<g clipPath="url(#clip0)">
<path d="M54.6274 9.37256C48.5835 3.32861 40.5474 0 32 0C23.4521 0 15.4165 3.32861 9.37256 9.37256C3.32861 15.4165 0 23.4521 0 32C0 40.5474 3.32861 48.5835 9.37256 54.6274C15.4165 60.6714 23.4521 64 32 64C40.5474 64 48.5835 60.6714 54.6274 54.6274C60.6714 48.5835 64 40.5474 64 32C64 23.4521 60.6714 15.4165 54.6274 9.37256ZM16.0425 55.2983C17.3809 47.5923 24.0586 41.9082 32 41.9082C39.9419 41.9082 46.6191 47.5923 47.9575 55.2983C43.4141 58.4199 37.917 60.25 32 60.25C26.083 60.25 20.5859 58.4199 16.0425 55.2983ZM21.8252 27.9834C21.8252 22.3726 26.3896 17.8086 32 17.8086C37.6104 17.8086 42.1748 22.373 42.1748 27.9834C42.1748 33.5938 37.6104 38.1582 32 38.1582C26.3896 38.1582 21.8252 33.5938 21.8252 27.9834ZM51.2056 52.6973C50.1963 49.1099 48.1919 45.855 45.3823 43.3125C43.6587 41.7524 41.6968 40.5215 39.5874 39.6538C43.3999 37.167 45.9253 32.8647 45.9253 27.9834C45.9253 20.3052 39.6782 14.0586 32 14.0586C24.3218 14.0586 18.0752 20.3052 18.0752 27.9834C18.0752 32.8647 20.6006 37.167 24.4126 39.6538C22.3037 40.5215 20.3413 41.752 18.6177 43.312C15.8086 45.8545 13.8037 49.1094 12.7944 52.6968C7.23535 47.5342 3.75 40.167 3.75 32C3.75 16.4229 16.4229 3.75 32 3.75C47.5771 3.75 60.25 16.4229 60.25 32C60.25 40.1675 56.7646 47.5347 51.2056 52.6973Z" fill="#FF8D73"/>
</g>
<defs>
<clipPath id="clip0">
<rect width="64" height="64" fill="white"/>
</clipPath>
</defs>
</svg>
