<svg width="62" height="62" viewBox="0 0 62 62" fill="none" xmlns="http://www.w3.org/2000/svg">
<path d="M41.668 56V50.6667C41.668 47.8377 40.5442 45.1246 38.5438 43.1242C36.5434 41.1238 33.8303 40 31.0013 40H12.3346C9.50566 40 6.79255 41.1238 4.79216 43.1242C2.79178 45.1246 1.66797 47.8377 1.66797 50.6667V56" stroke="#C2A790" stroke-width="4" stroke-linecap="round" stroke-linejoin="round"/>
<path d="M21.6667 29.3333C27.5577 29.3333 32.3333 24.5577 32.3333 18.6667C32.3333 12.7756 27.5577 8 21.6667 8C15.7756 8 11 12.7756 11 18.6667C11 24.5577 15.7756 29.3333 21.6667 29.3333Z" stroke="#C2A790" stroke-width="4" stroke-linecap="round" stroke-linejoin="round"/>
<path d="M47 21.3333L60.3333 34.6667" stroke="#C2A790" stroke-width="4" stroke-linecap="round" stroke-linejoin="round"/>
<path d="M60.3333 21.3333L47 34.6667" stroke="#C2A790" stroke-width="4" stroke-linecap="round" stroke-linejoin="round"/>
</svg>
