<svg width="58" height="52" viewBox="0 0 58 52" fill="none" xmlns="http://www.w3.org/2000/svg">
<path d="M13 18.971H11V21H13V18.971Z" fill="#FFC78B"/>
<path d="M19 18.971H17V21H19V18.971Z" fill="#FFC78B"/>
<path d="M41 18.971H39V21H41V18.971Z" fill="#FFC78B"/>
<path d="M47 18.971H45V21H47V18.971Z" fill="#FFC78B"/>
<path d="M54.01 33.3363C54.8521 32.8458 55.5632 32.1538 56.0814 31.3207C56.5995 30.4876 56.9091 29.5386 56.983 28.5564C57.057 27.5742 56.8931 26.5885 56.5056 25.6852C56.1182 24.782 55.5189 23.9885 54.76 23.374C54.9147 22.9377 54.9958 22.4781 55 22.0145C54.9993 21.1154 54.7044 20.242 54.1614 19.5314C53.6184 18.8208 52.8581 18.3132 52 18.0884V7.86236L54 7.19279V11.8696H56V5.78265C55.9985 5.57047 55.9323 5.36397 55.8106 5.19143C55.6888 5.01889 55.5175 4.88876 55.32 4.81888L43.32 0.76091C43.1124 0.689784 42.8876 0.689784 42.68 0.76091L30.68 4.81888C30.4799 4.88559 30.3057 5.01468 30.1822 5.18774C30.0587 5.3608 29.9922 5.569 29.9922 5.78265C29.9922 5.9963 30.0587 6.2045 30.1822 6.37756C30.3057 6.55062 30.4799 6.67971 30.68 6.74642L34 7.86236V18.0884C33.1419 18.3132 32.3816 18.8208 31.8386 19.5314C31.2956 20.242 31.0007 21.1154 31 22.0145C31.0042 22.4781 31.0853 22.9377 31.24 23.374C30.4811 23.9885 29.8818 24.782 29.4944 25.6852C29.1069 26.5885 28.943 27.5742 29.017 28.5564C29.0909 29.5386 29.4005 30.4876 29.9186 31.3207C30.4368 32.1538 31.1479 32.8458 31.99 33.3363C30.724 34.192 29.6947 35.3619 29 36.7348C27.9667 34.6852 26.21 33.1058 24.08 32.3116L19 30.4348V28.0203C19.9164 27.4789 20.7185 26.7593 21.3603 25.9028C22.0021 25.0463 22.4709 24.0697 22.74 23.029H23C23.7956 23.029 24.5587 22.7084 25.1213 22.1376C25.6839 21.5668 26 20.7927 26 19.9855C26 19.1784 25.6839 18.4042 25.1213 17.8335C24.5587 17.2627 23.7956 16.9421 23 16.9421V8.20729L26 7.19279V11.8696H28V5.78265C27.9985 5.57047 27.9323 5.36397 27.8106 5.19143C27.6888 5.01889 27.5175 4.88876 27.32 4.81888L15.32 0.76091C15.1124 0.689784 14.8876 0.689784 14.68 0.76091L2.68 4.81888C2.47993 4.88559 2.30573 5.01468 2.18223 5.18774C2.05874 5.3608 1.99225 5.569 1.99225 5.78265C1.99225 5.9963 2.05874 6.2045 2.18223 6.37756C2.30573 6.55062 2.47993 6.67971 2.68 6.74642L7 8.20729V16.9421C6.20435 16.9421 5.44129 17.2627 4.87868 17.8335C4.31607 18.4042 4 19.1784 4 19.9855C4 20.7927 4.31607 21.5668 4.87868 22.1376C5.44129 22.7084 6.20435 23.029 7 23.029H7.26C7.52907 24.0697 7.99792 25.0463 8.63971 25.9028C9.28149 26.7593 10.0836 27.4789 11 28.0203V30.4348L5.92 32.3116C4.18672 32.9536 2.68951 34.12 1.63076 35.6531C0.572015 37.1862 0.00277961 39.0122 0 40.8841V50.4203C0 50.6894 0.105357 50.9474 0.292893 51.1377C0.48043 51.3279 0.734784 51.4348 1 51.4348H57C57.2652 51.4348 57.5196 51.3279 57.7071 51.1377C57.8946 50.9474 58 50.6894 58 50.4203V40.8841C57.994 39.3909 57.6271 37.922 56.9315 36.6061C56.2359 35.2902 55.2327 34.1675 54.01 33.3363ZM7 21C6.73478 21 6.48043 20.8932 6.29289 20.7029C6.10536 20.5127 6 20.2546 6 19.9855C6 19.7165 6.10536 19.4584 6.29289 19.2682C6.48043 19.0779 6.73478 18.9711 7 18.9711V21ZM19.92 32.9305L18.84 34.6145L17.02 32.7783L18.06 32.2508L19.92 32.9305ZM21 15.8971C20.6192 15.8296 20.2657 15.652 19.9819 15.3857C19.698 15.1193 19.496 14.7756 19.4 14.3957L19.28 13.8986H21V15.8971ZM21 11.8696H9V8.87685L14.68 10.8044C14.8881 10.872 15.1119 10.872 15.32 10.8044L21 8.87685V11.8696ZM16.82 13.8986C16.6124 14.4898 16.2304 15.0017 15.7258 15.3648C15.2212 15.7278 14.6186 15.9243 14 15.9276H9V13.8986H16.82ZM24 19.9855C24 20.2546 23.8946 20.5127 23.7071 20.7029C23.5196 20.8932 23.2652 21 23 21V18.9711C23.2652 18.9711 23.5196 19.0779 23.7071 19.2682C23.8946 19.4584 24 19.7165 24 19.9855ZM6.16 5.78265L15 2.7899L23.84 5.78265L15 8.7754L6.16 5.78265ZM9 21V17.9566H14C14.7568 17.9555 15.5035 17.7807 16.1841 17.4451C16.8647 17.1095 17.4616 16.6219 17.93 16.0189C18.2575 16.5605 18.706 17.0163 19.2394 17.3494C19.7727 17.6825 20.3759 17.8835 21 17.9363V21C21 22.6144 20.3679 24.1626 19.2426 25.3042C18.1174 26.4457 16.5913 27.087 15 27.087C13.4087 27.087 11.8826 26.4457 10.7574 25.3042C9.63214 24.1626 9 22.6144 9 21ZM17 28.8522V30.516L15.76 31.145H14.24L13 30.516V28.8522C14.3108 29.2039 15.6892 29.2039 17 28.8522ZM11.94 32.2508L12.98 32.7783L11.16 34.6145L10.08 32.9305L11.94 32.2508ZM14 49.4058H2V40.8841C2.00416 39.4269 2.44822 38.006 3.27242 36.8125C4.09661 35.619 5.26139 34.7104 6.61 34.2087L8.15 33.6406L10.16 36.7754C10.2436 36.9003 10.3532 37.005 10.481 37.0821C10.6089 37.1593 10.7519 37.2069 10.9 37.2218C10.9327 37.2302 10.9664 37.2336 11 37.2319C11.2657 37.2327 11.5209 37.127 11.71 36.9377L11.76 36.8769L14 40.5595V49.4058ZM13.22 35.4058L15 33.5899L16.78 35.4058L15 38.3377L13.22 35.4058ZM28 49.4058H16V40.5595L18.24 36.8769L18.29 36.9377C18.4792 37.127 18.7343 37.2327 19 37.2319C19.0336 37.2336 19.0673 37.2302 19.1 37.2218C19.2481 37.2069 19.3911 37.1593 19.519 37.0821C19.6468 37.005 19.7564 36.9003 19.84 36.7754L21.85 33.6406L23.39 34.2087C24.7386 34.7104 25.9034 35.619 26.7276 36.8125C27.5518 38.006 27.9958 39.4269 28 40.8841V49.4058ZM53 22.0145C52.9939 22.1308 52.9771 22.2463 52.95 22.3595C52.7047 22.2698 52.4542 22.1952 52.2 22.1363L51.8 24.1247C52.7258 24.3151 53.555 24.8323 54.1402 25.5845C54.7255 26.3366 55.0289 27.275 54.9965 28.2327C54.9642 29.1904 54.5981 30.1054 53.9634 30.8151C53.3286 31.5248 52.4664 31.9832 51.53 32.1087L47 30.4348V28.0203C48.2146 27.3083 49.2235 26.285 49.9255 25.0529C50.6275 23.8208 50.9981 22.4232 51 21V19.9855C51.5299 19.9872 52.0377 20.2014 52.4125 20.5816C52.7872 20.9618 52.9984 21.4769 53 22.0145ZM45.66 32.0986L46.36 32.3522C45.32 32.8923 44.1684 33.1739 43 33.1739C41.8316 33.1739 40.68 32.8923 39.64 32.3522L40.34 32.0986C40.5339 32.0287 40.7016 31.8994 40.8199 31.7285C40.9381 31.5577 41.0011 31.3537 41 31.145V28.8522C42.3108 29.2039 43.6892 29.2039 45 28.8522V31.145C44.9989 31.3537 45.0619 31.5577 45.1801 31.7285C45.2984 31.8994 45.4661 32.0287 45.66 32.0986ZM43 27.087C41.4087 27.087 39.8826 26.4457 38.7574 25.3042C37.6321 24.1626 37 22.6144 37 21V17.9566H39.86C40.6836 17.9573 41.4946 17.7511 42.2205 17.3563C42.9464 16.9615 43.5647 16.3905 44.02 15.6942L44.16 15.4913L45.12 16.4754C45.585 16.9464 46.137 17.3197 46.7445 17.5739C47.352 17.828 48.0029 17.9581 48.66 17.9566H49V21C49 22.6144 48.3679 24.1626 47.2426 25.3042C46.1174 26.4457 44.5913 27.087 43 27.087ZM36 11.8696V8.54207L42.68 10.8044C42.8881 10.872 43.1119 10.872 43.32 10.8044L50 8.54207V11.8696H36ZM50 13.8986V15.9276H48.66C48.2658 15.9297 47.8752 15.8518 47.5111 15.6985C47.147 15.5452 46.8168 15.3195 46.54 15.0348L45.41 13.8986H50ZM42.8 13.8986L42.36 14.5682C42.0858 14.986 41.7141 15.3287 41.278 15.5658C40.8419 15.803 40.3548 15.9272 39.86 15.9276H36V13.8986H42.8ZM43 2.7899L51.84 5.78265L43 8.7754L34.16 5.78265L43 2.7899ZM31 28.1015C31.0018 27.1681 31.3196 26.2636 31.9004 25.5396C32.4811 24.8157 33.2895 24.3161 34.19 24.1247L33.79 22.1363C33.5387 22.1938 33.2915 22.2684 33.05 22.3595C33.0229 22.2463 33.0061 22.1308 33 22.0145C33.0016 21.4769 33.2128 20.9618 33.5875 20.5816C33.9623 20.2014 34.4701 19.9872 35 19.9855V21C35.0019 22.4232 35.3725 23.8208 36.0745 25.0529C36.7765 26.285 37.7854 27.3083 39 28.0203V30.4348L34.47 32.1087C33.5126 31.9774 32.6342 31.4996 31.9966 30.7632C31.3589 30.0269 31.005 29.0816 31 28.1015ZM42 49.4058H30V40.8841C30.0042 39.4269 30.4482 38.006 31.2724 36.8125C32.0966 35.619 33.2614 34.7104 34.61 34.2087L36.7 33.4377L42 40.6102V49.4058ZM40.19 34.7769C42.0215 35.345 43.9785 35.345 45.81 34.7769L43 38.5812L40.19 34.7769ZM56 49.4058H44V40.6102L49.3 33.4377L51.39 34.2087C52.7386 34.7104 53.9034 35.619 54.7276 36.8125C55.5518 38.006 55.9958 39.4269 56 40.8841V49.4058Z" fill="#FFC78B"/>
</svg>
