<svg width="60" height="60" viewBox="0 0 60 60" fill="none" xmlns="http://www.w3.org/2000/svg">
<g clipPath="url(#clip0)">
<path d="M29.999 0C13.4312 0 0 13.4322 0 29.9994C0 46.5666 13.4312 60 29.999 60C46.5668 60 59.9996 46.5674 59.9996 29.9994C59.9996 13.4314 46.5668 0 29.999 0ZM45.0724 24.6604L37.7352 31.9976C36.9394 32.7934 35.8814 33.2316 34.7562 33.2316C33.6312 33.2316 32.573 32.7932 31.7772 31.998L31.4898 31.7106L30.7086 32.4918L30.9954 32.7786C32.6382 34.4214 32.6382 37.0944 30.9954 38.7372L23.6592 46.0744C22.8634 46.8702 21.8054 47.3084 20.6796 47.3084C19.554 47.3084 18.4958 46.87 17.6996 46.0738L14.9266 43.3C13.2838 41.6582 13.2838 38.9854 14.926 37.342L22.2638 30.0052C23.0596 29.2094 24.1176 28.7712 25.2434 28.7712C26.3692 28.7712 27.4266 29.2096 28.223 30.0052L28.5094 30.2916L29.2906 29.5104L29.0042 29.224C27.3614 27.5818 27.3614 24.9088 29.0032 23.266L36.341 15.9288C37.1372 15.1326 38.1954 14.6942 39.3206 14.6942C40.4458 14.6942 41.5038 15.1326 42.3002 15.9282L45.0738 18.7028C46.7152 20.3446 46.7152 23.018 45.0724 24.6604Z" fill="black"/>
<path d="M28.507 34.6918L27.0884 36.1104L24.888 33.9106L26.3066 32.492L26.0202 32.2056C25.8122 31.9982 25.5358 31.8834 25.2422 31.8834C24.948 31.8834 24.6716 31.998 24.4636 32.2056L17.1264 39.5418C16.6974 39.9712 16.6974 40.6694 17.1264 41.0984L19.9004 43.873C20.317 44.2896 21.042 44.289 21.4576 43.8736L28.7938 36.5364C29.2234 36.107 29.2234 35.4082 28.7938 34.9786L28.507 34.6918Z" fill="black"/>
<path d="M40.0957 18.1286C39.8877 17.9206 39.6107 17.806 39.3165 17.806C39.0223 17.806 38.7453 17.9206 38.5373 18.1292L31.2001 25.466C30.7717 25.8954 30.7717 26.5936 31.2007 27.0232L31.4875 27.3096L33.6635 25.133L35.8639 27.3334L33.6879 29.51L33.9747 29.7968C34.3913 30.2122 35.1153 30.2128 35.5319 29.7962L42.8687 22.46C43.2977 22.0306 43.2977 21.3324 42.8687 20.9028L40.0957 18.1286Z" fill="black"/>
</g>
<defs>
<clipPath id="clip0">
<rect width="60" height="60" fill="white"/>
</clipPath>
</defs>
</svg>
