<svg width="20" height="15" viewBox="0 0 20 15" fill="none" xmlns="http://www.w3.org/2000/svg">
<path d="M19.3337 12.884H5.24911C4.9473 12.884 4.74609 13.0965 4.74609 13.4154C4.74609 13.7342 4.9473 13.9468 5.24911 13.9468H19.3337C19.6355 13.9468 19.8367 13.7342 19.8367 13.4154C19.8367 13.0965 19.6355 12.884 19.3337 12.884Z" fill="#1B1817"/>
<path d="M19.3337 7.03874H5.24911C4.9473 7.03874 4.74609 7.25131 4.74609 7.57015C4.74609 7.889 4.9473 8.10156 5.24911 8.10156H19.3337C19.6355 8.10156 19.8367 7.889 19.8367 7.57015C19.8367 7.25131 19.6355 7.03874 19.3337 7.03874Z" fill="#1B1817"/>
<path d="M19.3337 1.72429H5.24911C4.9473 1.72429 4.74609 1.93685 4.74609 2.2557C4.74609 2.57454 4.9473 2.78711 5.24911 2.78711H19.3337C19.6355 2.78711 19.8367 2.57454 19.8367 2.2557C19.8367 1.93685 19.6355 1.72429 19.3337 1.72429Z" fill="#1B1817"/>
<path d="M1.67997 14.9565C0.774534 14.9565 0.0703125 14.2126 0.0703125 13.256C0.0703125 12.2995 0.774534 11.5555 1.67997 11.5555C2.58541 11.5555 3.28965 12.2995 3.28965 13.256C3.28965 14.2126 2.58541 14.9565 1.67997 14.9565Z" fill="#1B1817"/>
<path d="M1.67997 9.42969C0.774534 9.42969 0.0703125 8.68571 0.0703125 7.72917C0.0703125 6.77263 0.774534 6.02866 1.67997 6.02866C2.58541 6.02866 3.28965 6.77263 3.28965 7.72917C3.28965 8.68571 2.58541 9.42969 1.67997 9.42969Z" fill="#1B1817"/>
<path d="M1.67997 3.79688C0.774534 3.79688 0.0703125 3.0529 0.0703125 2.09636C0.0703125 1.13982 0.774534 0.395843 1.67997 0.395843C2.58541 0.395843 3.28965 1.13982 3.28965 2.09636C3.28965 3.0529 2.58541 3.79688 1.67997 3.79688Z" fill="#1B1817"/>
</svg>
