<svg width="64" height="64" viewBox="0 0 64 64" fill="none" xmlns="http://www.w3.org/2000/svg">
<g clipPath="url(#clip0)">
<path d="M27.9722 15.8743H27.8035C24.6229 15.8743 22.0352 18.4621 22.0352 21.6427C22.0352 24.8233 24.6229 27.4111 27.8035 27.4111H27.9722C31.1529 27.4111 33.7405 24.8233 33.7405 21.6427C33.7405 18.4621 31.1529 15.8743 27.9722 15.8743ZM27.9722 24.9112H27.8035C26.0013 24.9112 24.5352 23.4451 24.5352 21.6428C24.5352 19.8406 26.0013 18.3745 27.8035 18.3745H27.9722C29.7744 18.3745 31.2405 19.8406 31.2405 21.6428C31.2405 23.4451 29.7744 24.9112 27.9722 24.9112Z" fill="#196ECD"/>
<path d="M32.4907 29.6473H23.2852C22.5949 29.6473 22.0352 30.207 22.0352 30.8973V53.7248C22.0352 54.415 22.5949 54.9748 23.2852 54.9748H32.4907C33.1809 54.9748 33.7407 54.415 33.7407 53.7248V30.8973C33.7407 30.2069 33.1809 29.6473 32.4907 29.6473ZM31.2407 52.4748H24.5352V32.1473H31.2407V52.4748Z" fill="#196ECD"/>
<path d="M27.8275 7.5394C20.394 7.5394 13.4055 10.4403 8.1495 15.7078C2.89425 20.9745 0 27.9766 0 35.4245C0 43.2303 3.26975 50.6749 8.99225 55.9513L8.54588 61.072C8.50913 61.4929 8.68763 61.9038 9.02013 62.1644C9.35275 62.425 9.79413 62.5 10.1944 62.3638L15.6501 60.5049C19.4566 62.3663 23.5509 63.3096 27.8276 63.3096C35.2611 63.3096 42.2495 60.4088 47.5055 55.1413C52.7608 49.8745 55.655 42.8724 55.655 35.4245C55.655 27.9766 52.7608 20.9744 47.5055 15.7078C42.2494 10.4403 35.261 7.5394 27.8275 7.5394ZM27.8275 60.8098C23.7714 60.8098 19.897 59.8781 16.3121 58.0406C16.1339 57.9494 15.9384 57.903 15.7419 57.903C15.606 57.903 15.4698 57.9251 15.3386 57.9698L11.2028 59.3789L11.5368 55.5481C11.5713 55.1525 11.4156 54.764 11.1176 54.5015C5.641 49.6786 2.5 42.7254 2.5 35.4245C2.5 21.4271 13.8619 10.0394 27.8275 10.0394C41.7931 10.0394 53.1549 21.4271 53.1549 35.4245C53.1549 49.4219 41.7931 60.8098 27.8275 60.8098Z" fill="#196ECD"/>
<path d="M48.6914 0.690266C48.0012 0.690266 47.4414 1.25002 47.4414 1.94027C47.4414 2.63052 48.0012 3.19027 48.6914 3.19027C55.7548 3.19027 61.5013 8.95051 61.5013 16.0309C61.5013 16.7211 62.061 17.2809 62.7513 17.2809C63.4415 17.2809 64.0013 16.7211 64.0013 16.0309C64.0013 7.57201 57.1333 0.690266 48.6914 0.690266Z" fill="#196ECD"/>
<path d="M50.0039 7.01497C49.3137 7.01497 48.7539 7.57472 48.7539 8.26497C48.7539 8.95522 49.3137 9.51497 50.0039 9.51497C52.8623 9.51497 55.1878 11.8467 55.1878 14.7128C55.1878 15.4031 55.7475 15.9628 56.4378 15.9628C57.128 15.9628 57.6878 15.4031 57.6878 14.7128C57.6878 10.4682 54.2409 7.01497 50.0039 7.01497Z" fill="#196ECD"/>
</g>
<defs>
<clipPath id="clip0">
<rect width="64" height="64" fill="white"/>
</clipPath>
</defs>
</svg>
