<svg width="62" height="62" viewBox="0 0 62 62" fill="none" xmlns="http://www.w3.org/2000/svg">
<g clipPath="url(#clip0)">
<path d="M62 30.9989C62 29.5251 61.2184 28.182 59.9057 27.4031L56.4533 25.372C57.7833 24.5823 58.9684 23.8779 59.9084 23.3186C61.2185 22.537 62 21.1939 62 19.7256C62 18.2573 61.2184 16.9142 59.9084 16.1311C55.593 13.5646 40.9599 4.86869 33.7466 0.733486C32.076 -0.225709 30.045 -0.26415 28.2395 0.741809C28.2395 0.741809 8.62232 12.2643 2.09422 16.1299C0.78165 16.9086 0 18.2517 0 19.7256C0 21.1939 0.78165 22.537 2.09158 23.3201C3.03149 23.879 4.21644 24.5832 5.54605 25.3726L2.09435 27.4031C0.78165 28.182 0 29.5251 0 30.9989C0 32.4672 0.78165 33.8103 2.09158 34.5934C3.03149 35.1524 4.21644 35.8566 5.54605 36.6459L2.09435 38.6764C0.78165 39.4553 0 40.7984 0 42.2723C0 43.7406 0.78165 45.0837 2.09158 45.8668C7.67568 49.1873 21.4006 57.3355 28.2534 61.2644C29.0928 61.746 30.0451 62.0006 31.0001 62.0006C31.955 62.0006 32.9074 61.746 33.7495 61.2629C40.5995 57.3354 54.3245 49.1873 59.9086 45.8653C61.2186 45.0837 62.0001 43.7406 62.0001 42.2723C62.0001 40.7984 61.2185 39.4553 59.9058 38.6764L56.4534 36.6454C57.7834 35.8557 58.9685 35.1513 59.9086 34.592C61.2185 33.8103 62 32.4672 62 30.9989ZM3.53374 20.9017C3.31907 20.7724 2.81814 20.4008 2.81814 19.728C2.81814 19.0522 3.3163 18.6836 3.53096 18.5569C10.0507 14.6956 29.6405 3.19033 29.6377 3.19165C30.5349 2.68662 31.5146 2.70591 32.3458 3.182C39.5398 7.30611 54.1592 15.9918 58.4663 18.5541C58.6809 18.6834 59.1819 19.055 59.1819 19.7278C59.1819 20.4006 58.6809 20.7722 58.4663 20.9002C52.8905 24.2165 39.1821 32.356 32.3486 36.2723C31.5009 36.7567 30.4964 36.7553 29.6542 36.2736C22.8179 32.356 9.10952 24.2167 3.53374 20.9017ZM58.469 41.1022C58.6837 41.2288 59.1819 41.5976 59.1819 42.2733C59.1819 42.9463 58.6809 43.3177 58.4663 43.4457C52.8905 46.762 39.1821 54.9015 32.3486 58.8178C31.5009 59.3022 30.4964 59.3008 29.6542 58.8191C22.8179 54.9015 9.10952 46.762 3.53374 43.4471C3.31907 43.3177 2.81814 42.9461 2.81814 42.2733C2.81814 41.5976 3.3163 41.2289 3.53096 41.1022L8.31294 38.2883C14.7764 42.1194 23.3026 47.1533 28.2534 49.9915C29.0928 50.4732 30.0451 50.7277 31.0001 50.7277C31.955 50.7277 32.9074 50.4732 33.7495 49.9902C38.6982 47.1529 47.2236 42.1198 53.6868 38.2882L58.469 41.1022ZM58.4663 32.1731C52.8905 35.4893 39.1821 43.6288 32.3486 47.5451C31.5009 48.0296 30.4964 48.0281 29.6542 47.5465C22.8179 43.6287 9.10952 35.4893 3.53374 32.1744C3.31907 32.045 2.81814 31.6734 2.81814 31.0006C2.81814 30.3249 3.3163 29.9562 3.53096 29.8296L8.31294 27.0156C14.7764 30.8467 23.3026 35.8806 28.2534 38.7189C29.0928 39.2005 30.0451 39.4551 31.0001 39.4551C31.955 39.4551 32.9074 39.2005 33.7495 38.7175C38.6982 35.8802 47.2236 30.8471 53.6868 27.0155L58.4692 29.8296C58.6838 29.9561 59.182 30.3249 59.182 31.0006C59.1819 31.6734 58.6809 32.045 58.4663 32.1731Z" fill="#01CDC0"/>
</g>
<defs>
<clipPath id="clip0">
<rect width="62" height="62" fill="white"/>
</clipPath>
</defs>
</svg>
