<svg width="21" height="20" viewBox="0 0 21 20" fill="none" xmlns="http://www.w3.org/2000/svg">
<path d="M18.9816 14.5455H18.0714V7.27273C18.0714 3.26273 14.8046 0 10.7897 0C6.77472 0 3.50795 3.26273 3.50795 7.27273V14.5455H2.59773C2.09437 14.5455 1.6875 14.9518 1.6875 15.4546C1.6875 15.9573 2.09437 16.3637 2.59773 16.3637H3.50795H7.14881C7.14881 18.3691 8.78173 20 10.7897 20C12.7976 20 14.4305 18.3691 14.4305 16.3636H18.0714H18.9816C19.485 16.3636 19.8918 15.9573 19.8918 15.4545C19.8918 14.9518 19.4849 14.5455 18.9816 14.5455ZM10.7897 18.1818C9.7857 18.1818 8.96926 17.3664 8.96926 16.3637H12.6101C12.6101 17.3664 11.7936 18.1818 10.7897 18.1818ZM16.2509 14.5455H14.4305H7.14881H5.3284V7.27273C5.3284 4.26457 7.77779 1.8182 10.7897 1.8182C13.8016 1.8182 16.2509 4.26457 16.2509 7.27273V14.5455Z" fill="#949DA6"/>
</svg>
