<svg width="21" height="20" viewBox="0 0 21 20" fill="none" xmlns="http://www.w3.org/2000/svg">
<g clipPath="url(#clip0)">
<path d="M9.01378 0C4.15141 0 0.195312 3.95121 0.195312 8.80758C0.195312 13.6642 4.15141 17.6152 9.01378 17.6152C13.8764 17.6152 17.8322 13.6642 17.8322 8.80758C17.8322 3.95121 13.8764 0 9.01378 0ZM9.01378 15.9892C5.049 15.9892 1.82334 12.7675 1.82334 8.80762C1.82334 4.84773 5.049 1.62602 9.01378 1.62602C12.9786 1.62602 16.2042 4.8477 16.2042 8.80758C16.2042 12.7675 12.9786 15.9892 9.01378 15.9892Z" fill="#949DA6"/>
<path d="M19.9824 18.6122L15.3153 13.9509C14.9973 13.6333 14.4823 13.6333 14.1643 13.9509C13.8463 14.2683 13.8463 14.7832 14.1643 15.1005L18.8313 19.7618C18.9903 19.9206 19.1985 20 19.4068 20C19.6149 20 19.8233 19.9206 19.9824 19.7618C20.3004 19.4445 20.3004 18.9295 19.9824 18.6122Z" fill="#949DA6"/>
</g>
<defs>
<clipPath id="clip0">
<rect width="20.0247" height="20" fill="white" transform="translate(0.195312)"/>
</clipPath>
</defs>
</svg>
