<svg width="64" height="65" viewBox="0 0 64 65" fill="none" xmlns="http://www.w3.org/2000/svg">
<path d="M16 30.4348H14V32.4638H16V30.4348Z" fill="#FFC78B"/>
<path d="M22 30.4348H20V32.4638H22V30.4348Z" fill="#FFC78B"/>
<path d="M44 30.4348H42V32.4638H44V30.4348Z" fill="#FFC78B"/>
<path d="M50 30.4348H48V32.4638H50V30.4348Z" fill="#FFC78B"/>
<path d="M57.01 44.8C57.8521 44.3095 58.5632 43.6176 59.0814 42.7845C59.5995 41.9514 59.9091 41.0024 59.983 40.0202C60.057 39.038 59.8931 38.0523 59.5056 37.149C59.1182 36.2457 58.5189 35.4523 57.76 34.8377C57.9147 34.4015 57.9958 33.9419 58 33.4783C57.9993 32.5792 57.7044 31.7058 57.1614 30.9951C56.6184 30.2845 55.8581 29.777 55 29.5522V19.3261L57 18.6566V23.3334H59V17.2464C58.9985 17.0342 58.9323 16.8277 58.8106 16.6552C58.6888 16.4827 58.5175 16.3525 58.32 16.2826L46.32 12.2247C46.1124 12.1536 45.8876 12.1536 45.68 12.2247L33.68 16.2826C33.4799 16.3494 33.3057 16.4784 33.1822 16.6515C33.0587 16.8246 32.9922 17.0328 32.9922 17.2464C32.9922 17.4601 33.0587 17.6683 33.1822 17.8413C33.3057 18.0144 33.4799 18.1435 33.68 18.2102L37 19.3261V29.5522C36.1419 29.777 35.3816 30.2845 34.8386 30.9951C34.2956 31.7058 34.0007 32.5792 34 33.4783C34.0042 33.9419 34.0853 34.4015 34.24 34.8377C33.4811 35.4523 32.8818 36.2457 32.4944 37.149C32.1069 38.0523 31.943 39.038 32.017 40.0202C32.0909 41.0024 32.4005 41.9514 32.9186 42.7845C33.4368 43.6176 34.1479 44.3095 34.99 44.8C33.724 45.6557 32.6947 46.8256 32 48.1986C30.9667 46.1489 29.21 44.5696 27.08 43.7754L22 41.8986V39.4841C22.9164 38.9427 23.7185 38.2231 24.3603 37.3666C25.0021 36.51 25.4709 35.5335 25.74 34.4928H26C26.7956 34.4928 27.5587 34.1721 28.1213 33.6014C28.6839 33.0306 29 32.2565 29 31.4493C29 30.6421 28.6839 29.868 28.1213 29.2973C27.5587 28.7265 26.7956 28.4058 26 28.4058V19.6711L29 18.6566V23.3334H31V17.2464C30.9985 17.0342 30.9323 16.8277 30.8106 16.6552C30.6888 16.4827 30.5175 16.3525 30.32 16.2826L18.32 12.2247C18.1124 12.1536 17.8876 12.1536 17.68 12.2247L5.68 16.2826C5.47993 16.3494 5.30573 16.4784 5.18223 16.6515C5.05874 16.8246 4.99225 17.0328 4.99225 17.2464C4.99225 17.4601 5.05874 17.6683 5.18223 17.8413C5.30573 18.0144 5.47993 18.1435 5.68 18.2102L10 19.6711V28.4058C9.20435 28.4058 8.44129 28.7265 7.87868 29.2973C7.31607 29.868 7 30.6421 7 31.4493C7 32.2565 7.31607 33.0306 7.87868 33.6014C8.44129 34.1721 9.20435 34.4928 10 34.4928H10.26C10.5291 35.5335 10.9979 36.51 11.6397 37.3666C12.2815 38.2231 13.0836 38.9427 14 39.4841V41.8986L8.92 43.7754C7.18672 44.4174 5.68951 45.5838 4.63076 47.1169C3.57202 48.65 3.00278 50.4759 3 52.3479V61.8841C3 62.1532 3.10536 62.4112 3.29289 62.6015C3.48043 62.7917 3.73478 62.8986 4 62.8986H60C60.2652 62.8986 60.5196 62.7917 60.7071 62.6015C60.8946 62.4112 61 62.1532 61 61.8841V52.3479C60.994 50.8547 60.6271 49.3858 59.9315 48.0699C59.2359 46.754 58.2327 45.6312 57.01 44.8ZM10 32.4638C9.73478 32.4638 9.48043 32.3569 9.29289 32.1667C9.10536 31.9764 9 31.7184 9 31.4493C9 31.1803 9.10536 30.9222 9.29289 30.732C9.48043 30.5417 9.73478 30.4348 10 30.4348V32.4638ZM22.92 44.3942L21.84 46.0783L20.02 44.2421L21.06 43.7145L22.92 44.3942ZM24 27.3609C23.6192 27.2934 23.2657 27.1158 22.9819 26.8494C22.698 26.5831 22.496 26.2394 22.4 25.8595L22.28 25.3624H24V27.3609ZM24 23.3334H12V20.3406L17.68 22.2682C17.8881 22.3358 18.1119 22.3358 18.32 22.2682L24 20.3406V23.3334ZM19.82 25.3624C19.6124 25.9536 19.2304 26.4655 18.7258 26.8286C18.2212 27.1916 17.6186 27.3881 17 27.3913H12V25.3624H19.82ZM27 31.4493C27 31.7184 26.8946 31.9764 26.7071 32.1667C26.5196 32.3569 26.2652 32.4638 26 32.4638V30.4348C26.2652 30.4348 26.5196 30.5417 26.7071 30.732C26.8946 30.9222 27 31.1803 27 31.4493ZM9.16 17.2464L18 14.2537L26.84 17.2464L18 20.2392L9.16 17.2464ZM12 32.4638V29.4203H17C17.7568 29.4193 18.5035 29.2444 19.1841 28.9088C19.8647 28.5733 20.4616 28.0857 20.93 27.4827C21.2575 28.0243 21.706 28.4801 22.2394 28.8132C22.7727 29.1463 23.3759 29.3473 24 29.4V32.4638C24 34.0782 23.3679 35.6264 22.2426 36.7679C21.1174 37.9095 19.5913 38.5508 18 38.5508C16.4087 38.5508 14.8826 37.9095 13.7574 36.7679C12.6321 35.6264 12 34.0782 12 32.4638ZM20 40.316V41.9798L18.76 42.6087H17.24L16 41.9798V40.316C17.3108 40.6677 18.6892 40.6677 20 40.316ZM14.94 43.7145L15.98 44.2421L14.16 46.0783L13.08 44.3942L14.94 43.7145ZM17 60.8696H5V52.3479C5.00416 50.8907 5.44822 49.4697 6.27242 48.2763C7.09661 47.0828 8.26139 46.1741 9.61 45.6725L11.15 45.1044L13.16 48.2392C13.2436 48.3641 13.3532 48.4688 13.481 48.5459C13.6089 48.623 13.7519 48.6707 13.9 48.6856C13.9327 48.6939 13.9664 48.6974 14 48.6957C14.2657 48.6965 14.5209 48.5907 14.71 48.4015L14.76 48.3406L17 52.0232V60.8696ZM16.22 46.8696L18 45.0537L19.78 46.8696L18 49.8015L16.22 46.8696ZM31 60.8696H19V52.0232L21.24 48.3406L21.29 48.4015C21.4792 48.5907 21.7343 48.6965 22 48.6957C22.0336 48.6974 22.0673 48.6939 22.1 48.6856C22.2481 48.6707 22.3911 48.623 22.519 48.5459C22.6468 48.4688 22.7564 48.3641 22.84 48.2392L24.85 45.1044L26.39 45.6725C27.7386 46.1741 28.9034 47.0828 29.7276 48.2763C30.5518 49.4697 30.9958 50.8907 31 52.3479V60.8696ZM56 33.4783C55.9939 33.5946 55.9771 33.7101 55.95 33.8232C55.7047 33.7335 55.4542 33.659 55.2 33.6L54.8 35.5885C55.7258 35.7788 56.555 36.2961 57.1402 37.0482C57.7255 37.8004 58.0289 38.7387 57.9965 39.6964C57.9642 40.6541 57.5981 41.5692 56.9634 42.2789C56.3286 42.9886 55.4664 43.4469 54.53 43.5725L50 41.8986V39.4841C51.2146 38.7721 52.2235 37.7488 52.9255 36.5167C53.6275 35.2846 53.9981 33.8869 54 32.4638V31.4493C54.5299 31.4509 55.0377 31.6652 55.4125 32.0454C55.7872 32.4255 55.9984 32.9407 56 33.4783ZM48.66 43.5624L49.36 43.816C48.32 44.3561 47.1684 44.6377 46 44.6377C44.8316 44.6377 43.68 44.3561 42.64 43.816L43.34 43.5624C43.5339 43.4925 43.7016 43.3632 43.8199 43.1923C43.9381 43.0214 44.0011 42.8175 44 42.6087V40.316C45.3108 40.6677 46.6892 40.6677 48 40.316V42.6087C47.9989 42.8175 48.0619 43.0214 48.1801 43.1923C48.2984 43.3632 48.4661 43.4925 48.66 43.5624ZM46 38.5508C44.4087 38.5508 42.8826 37.9095 41.7574 36.7679C40.6321 35.6264 40 34.0782 40 32.4638V29.4203H42.86C43.6836 29.4211 44.4946 29.2148 45.2205 28.8201C45.9464 28.4253 46.5647 27.8543 47.02 27.158L47.16 26.9551L48.12 27.9392C48.585 28.4102 49.137 28.7835 49.7445 29.0376C50.352 29.2918 51.0029 29.4219 51.66 29.4203H52V32.4638C52 34.0782 51.3679 35.6264 50.2426 36.7679C49.1174 37.9095 47.5913 38.5508 46 38.5508ZM39 23.3334V20.0058L45.68 22.2682C45.8881 22.3358 46.1119 22.3358 46.32 22.2682L53 20.0058V23.3334H39ZM53 25.3624V27.3913H51.66C51.2658 27.3935 50.8752 27.3156 50.5111 27.1623C50.147 27.0089 49.8168 26.7833 49.54 26.4986L48.41 25.3624H53ZM45.8 25.3624L45.36 26.0319C45.0858 26.4498 44.7141 26.7924 44.278 27.0296C43.8419 27.2667 43.3548 27.391 42.86 27.3913H39V25.3624H45.8ZM46 14.2537L54.84 17.2464L46 20.2392L37.16 17.2464L46 14.2537ZM34 39.5653C34.0018 38.6318 34.3196 37.7274 34.9004 37.0034C35.4811 36.2794 36.2895 35.7799 37.19 35.5885L36.79 33.6C36.5387 33.6576 36.2915 33.7322 36.05 33.8232C36.0229 33.7101 36.0061 33.5946 36 33.4783C36.0016 32.9407 36.2128 32.4255 36.5875 32.0454C36.9623 31.6652 37.4701 31.4509 38 31.4493V32.4638C38.0019 33.8869 38.3725 35.2846 39.0745 36.5167C39.7765 37.7488 40.7854 38.7721 42 39.4841V41.8986L37.47 43.5725C36.5126 43.4412 35.6342 42.9633 34.9966 42.227C34.3589 41.4906 34.005 40.5454 34 39.5653ZM45 60.8696H33V52.3479C33.0042 50.8907 33.4482 49.4697 34.2724 48.2763C35.0966 47.0828 36.2614 46.1741 37.61 45.6725L39.7 44.9015L45 52.074V60.8696ZM43.19 46.2406C45.0215 46.8088 46.9785 46.8088 48.81 46.2406L46 50.045L43.19 46.2406ZM59 60.8696H47V52.074L52.3 44.9015L54.39 45.6725C55.7386 46.1741 56.9034 47.0828 57.7276 48.2763C58.5518 49.4697 58.9958 50.8907 59 52.3479V60.8696Z" fill="#FFC78B"/>
</svg>
